<?xml version="1.0" standalone="no"?>
<!DOCTYPE svg PUBLIC "-//W3C//DTD SVG 20010904//EN"
 "http://www.w3.org/TR/2001/REC-SVG-20010904/DTD/svg10.dtd">
<svg version="1.0" xmlns="http://www.w3.org/2000/svg"
 width="2846.000000pt" height="2846.000000pt" viewBox="0 0 2846.000000 2846.000000"
 preserveAspectRatio="xMidYMid meet">
<metadata>
Created by potrace 1.14, written by Peter Selinger 2001-2017
</metadata>
<g transform="translate(0.000000,2846.000000) scale(0.100000,-0.100000)"
fill="#000000" stroke="none">
<path d="M3740 23845 l0 -745 745 0 744 0 3 -1969 c2 -1083 6 -1973 11 -1977
8 -8 296 36 397 61 60 15 167 31 450 70 667 90 1427 116 2055 70 259 -19 546
-45 565 -50 8 -2 105 -16 215 -30 110 -15 256 -37 325 -50 69 -14 184 -36 255
-49 141 -27 397 -85 595 -136 475 -121 1155 -359 1545 -540 44 -20 105 -47
135 -61 202 -89 647 -317 883 -453 l167 -96 1450 0 c1374 0 1450 1 1450 18 0
9 -25 109 -56 222 -30 113 -106 401 -169 640 -183 699 -374 1429 -482 1835
-24 94 -53 204 -62 245 -10 41 -28 109 -39 150 -12 41 -32 118 -46 170 -13 52
-47 183 -76 290 -77 293 -108 412 -145 555 -18 72 -56 218 -85 325 -76 287
-95 359 -139 530 -22 85 -45 169 -50 187 -5 17 -7 34 -3 37 3 3 290 6 639 6
l633 0 0 745 0 745 -5955 0 -5955 0 0 -745z"/>
<path d="M21530 22363 c-300 -32 -528 -92 -769 -203 -378 -174 -679 -431 -916
-780 -145 -213 -303 -584 -340 -799 -25 -143 -34 -473 -40 -1604 l-7 -1087
754 2 753 3 1 1080 c0 594 4 1131 8 1194 11 167 57 289 153 408 120 149 270
240 461 278 42 8 87 17 100 20 l22 5 0 745 0 745 -72 -2 c-40 0 -89 -3 -108
-5z"/>
<path d="M6945 17893 c-139 -9 -413 -35 -515 -49 -288 -39 -470 -66 -530 -79
-36 -8 -114 -23 -175 -34 -119 -21 -479 -103 -554 -126 -25 -7 -89 -25 -141
-40 -166 -45 -395 -119 -645 -208 -449 -159 -1056 -448 -1490 -710 -456 -276
-1096 -738 -1095 -791 1 -9 111 -154 223 -290 576 -704 669 -816 695 -836 l25
-20 43 33 c23 17 102 77 176 133 456 346 888 606 1393 838 350 161 429 192
775 305 397 130 474 150 890 236 267 54 343 67 600 102 l205 28 660 0 c586 0
674 -2 780 -18 66 -10 170 -25 230 -33 136 -18 488 -86 655 -125 69 -16 136
-32 150 -35 14 -3 88 -23 165 -45 800 -233 1440 -526 2100 -963 993 -659 1809
-1538 2390 -2576 99 -177 270 -520 320 -640 15 -36 43 -103 62 -150 143 -346
247 -667 353 -1084 33 -132 62 -241 63 -242 1 -1 576 -5 1277 -8 l1275 -7 54
93 c134 230 368 556 562 783 134 156 422 450 572 581 461 408 973 741 1518
988 101 46 218 96 259 111 41 15 136 49 210 76 301 110 634 195 985 254 391
64 461 69 970 70 454 0 646 -10 848 -45 29 -5 119 -21 200 -34 167 -29 463
-96 577 -131 310 -97 389 -122 490 -161 230 -89 508 -218 767 -357 56 -30 104
-52 107 -49 10 9 6 801 -4 944 -50 691 -270 1262 -673 1748 -477 574 -1088
920 -1861 1056 -129 22 -2085 32 -6775 33 l-3703 1 -117 74 c-322 203 -898
517 -1141 621 -341 145 -424 179 -590 240 -909 332 -1765 504 -2665 535 -282
9 -827 11 -950 3z"/>
<path d="M7100 14921 c-205 -12 -530 -49 -685 -80 -867 -172 -1569 -456 -2260
-914 -334 -222 -540 -394 -890 -742 -345 -345 -511 -544 -753 -907 -222 -331
-383 -639 -572 -1088 -120 -285 -282 -849 -334 -1165 -68 -405 -79 -597 -73
-1195 l4 -445 36 -235 c40 -262 43 -277 87 -475 71 -320 180 -666 315 -1000
50 -123 248 -525 325 -660 319 -555 730 -1054 1242 -1507 790 -701 1736 -1168
2778 -1374 369 -73 644 -94 1205 -94 460 0 655 16 1040 86 857 157 1668 504
2390 1022 282 203 460 355 745 641 723 725 1222 1581 1508 2586 87 304 159
693 194 1040 17 174 17 932 0 1113 -84 877 -352 1715 -782 2442 -53 91 -108
183 -121 205 -13 22 -61 94 -108 160 -741 1057 -1708 1807 -2886 2242 -343
126 -809 244 -1135 288 -369 49 -935 74 -1270 56z m640 -3742 c398 -41 815
-221 1135 -491 405 -341 652 -744 765 -1249 139 -624 -8 -1278 -404 -1803 -85
-112 -253 -284 -370 -379 -232 -186 -499 -328 -771 -407 -38 -11 -84 -25 -102
-30 -135 -44 -523 -70 -752 -51 -389 33 -834 219 -1161 485 -392 319 -664 756
-773 1241 -45 198 -51 252 -51 485 0 173 4 248 18 325 115 640 430 1143 942
1500 214 150 425 246 729 331 53 15 271 51 345 58 65 6 339 -3 450 -15z"/>
<path d="M7280 9706 c-127 -36 -300 -148 -385 -251 -152 -182 -208 -422 -151
-647 39 -155 109 -274 221 -376 250 -229 607 -264 900 -89 136 81 264 241 317
397 20 57 23 85 23 225 0 122 -4 176 -18 225 -66 245 -305 468 -551 515 -93
18 -293 18 -356 1z"/>
<path d="M22080 11944 c-209 -17 -284 -27 -496 -69 -802 -160 -1529 -521
-2114 -1049 -208 -188 -436 -432 -571 -611 -256 -337 -524 -820 -639 -1150
-16 -44 -39 -111 -53 -150 -93 -263 -157 -559 -209 -975 -18 -142 -18 -757 0
-900 29 -235 56 -394 93 -555 252 -1103 915 -2066 1859 -2703 244 -164 610
-354 880 -457 102 -39 373 -128 456 -150 200 -53 501 -108 686 -125 152 -13
741 -14 933 0 469 33 1037 196 1523 437 208 103 415 228 647 390 227 159 583
491 782 729 155 187 309 398 392 539 100 169 144 250 211 390 218 451 355 906
416 1375 21 166 32 891 15 1036 -56 480 -173 927 -349 1332 -69 157 -224 451
-313 590 -550 869 -1371 1513 -2374 1862 -514 180 -1194 261 -1775 214z m602
-3763 c222 -83 386 -254 459 -480 38 -120 46 -224 25 -329 -31 -154 -100 -284
-209 -395 -245 -249 -623 -289 -912 -96 -211 142 -330 361 -329 609 2 341 209
612 541 710 56 16 91 19 203 16 123 -3 143 -6 222 -35z"/>
<path d="M14910 7865 l0 -1125 821 0 821 0 -5 43 c-39 298 -53 859 -29 1142
22 250 75 627 106 755 30 122 59 281 52 287 -13 14 -396 21 -1088 22 l-678 1
0 -1125z"/>
</g>
</svg>
